<svg width="138" height="40" viewBox="0 0 138 40" fill="none" xmlns="http://www.w3.org/2000/svg">
<path fill-rule="evenodd" clip-rule="evenodd" d="M55.4542 1.37009H2.96712H1.50621V2.66064V37.3394V38.6299H2.96712H55.4542H56.9151V37.3394V31.1779H55.4542V37.3394H2.96712V2.66064H55.4542V8.82205H56.9151V2.66064V1.37009H55.4542ZM8.67928 8.31625V32.2019H12.3199V25.1812C12.3199 23.9707 12.3053 22.9228 12.2731 22.0426C12.241 21.1624 12.2059 20.3907 12.1621 19.7273C12.1212 19.0666 12.0744 18.491 12.0189 18.0006C11.9663 17.5102 11.9254 17.0559 11.8933 16.6378H12.0189L18.5433 32.2019H21.8976V8.31625H18.2248V17.0301C18.2248 17.9515 18.2424 18.7827 18.2745 19.5183C18.3037 20.2539 18.3417 20.9147 18.3826 21.498C18.4264 22.0787 18.4732 22.6001 18.5258 23.057C18.5784 23.5138 18.6222 23.9268 18.6543 24.3011H18.5579L12.0043 8.31625H8.67928ZM26.5199 8.31625V32.2019H30.6221V21.1676H35.5132V18.3155H30.6221V11.1684H36.8572V8.31625H26.5199ZM42.0989 11.1684V32.2019H46.1982V11.1684H50.5342V8.31625H37.7454V11.1684H42.0989ZM74.1074 8.31625V32.2019H78.2067V21.1676H83.0978V18.3155H78.2067V11.1684H84.4447V8.31625H74.1074ZM87.1825 8.31625V32.2019H96.8712V29.3497H91.2818V8.31625H87.1825ZM105.45 32.4109C105.841 32.4109 106.279 32.38 106.764 32.3129C107.249 32.2483 107.737 32.1167 108.228 31.9154C108.719 31.714 109.198 31.4353 109.669 31.0765C110.139 30.7177 110.554 30.2428 110.91 29.6491C111.27 29.0581 111.562 28.3354 111.781 27.481C112.003 26.6292 112.114 25.6097 112.114 24.4276V15.9667C112.114 14.7458 112.006 13.703 111.79 12.8409C111.574 11.9788 111.287 11.2561 110.928 10.6728C110.569 10.0895 110.157 9.63004 109.692 9.28933C109.228 8.94862 108.751 8.69309 108.26 8.52016C107.77 8.34722 107.279 8.23623 106.788 8.18461C106.297 8.13299 105.85 8.10718 105.45 8.10718C105.029 8.10718 104.57 8.13557 104.073 8.18978C103.577 8.24656 103.077 8.36529 102.577 8.54855C102.075 8.72923 101.596 8.9925 101.137 9.33837C100.678 9.68166 100.269 10.1463 99.9099 10.7296C99.5505 11.3103 99.2642 12.0305 99.0479 12.8822C98.8317 13.7366 98.7236 14.7639 98.7236 15.9667V24.4276C98.7236 25.62 98.8288 26.6473 99.0392 27.5094C99.2495 28.3715 99.533 29.0968 99.8865 29.6853C100.24 30.2712 100.646 30.7461 101.105 31.1049C101.564 31.4637 102.043 31.7398 102.537 31.936C103.033 32.1322 103.536 32.2612 104.041 32.3206C104.547 32.3825 105.017 32.4109 105.45 32.4109ZM105.45 29.6853C105.038 29.6853 104.681 29.6233 104.374 29.502C104.068 29.3807 103.813 29.1716 103.615 28.8748C103.413 28.5754 103.264 28.1805 103.162 27.6927C103.063 27.2022 103.013 26.5854 103.013 25.8394V14.9729C103.013 14.2089 103.063 13.5688 103.162 13.0578C103.264 12.5441 103.413 12.1311 103.615 11.8188C103.813 11.5065 104.068 11.2871 104.374 11.1555C104.681 11.0238 105.038 10.9593 105.45 10.9593C105.85 10.9593 106.203 11.0238 106.504 11.1555C106.802 11.2845 107.051 11.5065 107.247 11.8188C107.442 12.1311 107.591 12.5441 107.691 13.0578C107.79 13.5688 107.84 14.2089 107.84 14.9729V25.8394C107.84 26.5854 107.79 27.2022 107.691 27.6927C107.591 28.1805 107.442 28.5754 107.247 28.8748C107.051 29.1716 106.802 29.3807 106.504 29.502C106.203 29.6233 105.85 29.6853 105.45 29.6853ZM114.268 8.31625L118.162 32.2019H122.279L124.62 20.7211L125.3 15.7292H125.619L126.314 20.7211L128.547 32.2019H132.71L136.494 8.31625H132.552L130.89 22.7472L130.7 26.1182H130.288L129.972 22.3291L127.185 8.31625H123.91L120.997 22.3291L120.617 26.1182H120.219L120.015 22.7472L118.195 8.31625H114.268ZM56.9056 26.1718C56.6397 26.2106 56.3826 26.2312 56.1401 26.2312C55.8683 26.2312 55.5966 26.2131 55.3161 26.1744C55.0385 26.1357 54.7697 26.0583 54.5097 25.9395C54.2496 25.8208 54.0042 25.6505 53.7734 25.4285C53.5455 25.2065 53.3439 24.9148 53.1744 24.5535C53.002 24.1896 52.8676 23.743 52.7683 23.2139C52.6719 22.6848 52.6222 22.0524 52.6222 21.3168V19.5642C52.6222 18.8389 52.6719 18.2194 52.7741 17.7032C52.8764 17.187 53.0137 16.7534 53.1861 16.4023C53.3614 16.0487 53.5659 15.77 53.7968 15.5609C54.0305 15.3544 54.2759 15.1944 54.536 15.0834C54.796 14.9724 55.0648 14.9001 55.3395 14.864C55.6171 14.8279 55.8859 14.8124 56.1488 14.8124C56.4001 14.8124 56.6601 14.8279 56.9289 14.8588C57.1978 14.8924 57.4607 14.9621 57.7178 15.0679C57.975 15.1712 58.2175 15.3286 58.4483 15.5377C58.6791 15.7467 58.8807 16.0255 59.0531 16.3765C59.2284 16.7276 59.3657 17.1638 59.468 17.6877C59.5673 18.2091 59.6199 18.8337 59.6199 19.5642V21.3168C59.6199 22.0421 59.5673 22.6667 59.4622 23.1907C59.3599 23.7146 59.2167 24.1586 59.0414 24.5199C58.8632 24.8813 58.6587 25.1755 58.4249 25.4001C58.1941 25.6246 57.9487 25.8002 57.6915 25.9241C57.4344 26.048 57.1715 26.1305 56.9056 26.1718ZM55.6024 24.507C55.7515 24.6025 55.9385 24.649 56.1576 24.649C56.365 24.649 56.5403 24.6025 56.6864 24.507C56.8296 24.4141 56.9465 24.2567 57.0341 24.0424C57.1218 23.8256 57.1861 23.5391 57.227 23.1855C57.2679 22.8319 57.2854 22.3931 57.2854 21.8691V19.1177C57.2854 18.5937 57.2679 18.1523 57.227 17.7961C57.1861 17.44 57.1218 17.1509 57.0341 16.9315C56.9465 16.7147 56.8296 16.5546 56.6864 16.4591C56.5403 16.361 56.365 16.312 56.1576 16.312C55.9385 16.312 55.7515 16.361 55.6024 16.4591C55.4505 16.5546 55.3278 16.7147 55.2314 16.9315C55.132 17.1509 55.0619 17.44 55.0181 17.7961C54.9772 18.1523 54.9538 18.5937 54.9538 19.1177V21.8691C54.9538 22.3931 54.9772 22.8319 55.0181 23.1855C55.0619 23.5391 55.132 23.8256 55.2314 24.0424C55.3278 24.2567 55.4505 24.4141 55.6024 24.507ZM61.6769 26.1099V14.9414H63.465L63.6783 16.1339V16.1417C63.8595 15.8887 64.0582 15.6745 64.2685 15.5041C64.4818 15.3338 64.698 15.197 64.9259 15.0963C65.1509 14.9931 65.3847 14.9208 65.6184 14.8769C65.8551 14.833 66.0888 14.8124 66.3226 14.8124C67.0618 14.8124 67.6315 15.0395 68.0347 15.4964C68.435 15.9532 68.6337 16.6398 68.6337 17.5535V26.1099H66.3109V17.6258C66.3109 17.1328 66.2261 16.7921 66.0537 16.6011C65.8843 16.4075 65.633 16.312 65.3028 16.312C65.0691 16.312 64.8383 16.3791 64.6104 16.5159C64.3796 16.6501 64.175 16.836 63.9997 17.0734V26.1099H61.6769Z" fill="url(#paint0_linear)"/>
<defs>
<linearGradient id="paint0_linear" x1="69" y1="1.37009" x2="69" y2="38.6299" gradientUnits="userSpaceOnUse">
<stop stop-color="#2DE083"/>
<stop offset="1" stop-color="#007A3A"/>
</linearGradient>
</defs>
</svg>
