<svg width="125" height="129" viewBox="0 0 125 129" fill="none" xmlns="http://www.w3.org/2000/svg">
<path d="M0.480189 30.731C0.39887 29.0001 1.44141 27.4136 3.06256 26.8013L72.4084 0.611997C74.0296 -0.000247846 75.8606 0.501011 76.9438 1.85361L123.28 59.7125C124.364 61.0651 124.453 62.9614 123.501 64.4096L82.7928 126.358C81.8411 127.806 80.0651 128.477 78.3937 128.019L6.89806 108.446C5.22665 107.989 4.03997 106.507 3.95865 104.776L0.480189 30.731Z" fill="#7C2CFF"/>
<path d="M0.480189 30.731C0.39887 29.0001 1.44141 27.4136 3.06256 26.8013L72.4084 0.611997C74.0296 -0.000247846 75.8606 0.501011 76.9438 1.85361L123.28 59.7125C124.364 61.0651 124.453 62.9614 123.501 64.4096L82.7928 126.358C81.8411 127.806 80.0651 128.477 78.3937 128.019L6.89806 108.446C5.22665 107.989 4.03997 106.507 3.95865 104.776L0.480189 30.731Z" fill="url(#paint0_radial)" fill-opacity="0.2"/>
<path d="M1.97854 30.6607C1.92771 29.5788 2.57929 28.5872 3.59252 28.2046L72.9384 2.01526C73.9516 1.63261 75.096 1.94589 75.773 2.79127L122.11 60.6502C122.787 61.4956 122.842 62.6807 122.247 63.5859L81.5392 125.534C80.9444 126.439 79.8344 126.858 78.7898 126.572L7.29413 106.999C6.2495 106.713 5.50782 105.787 5.457 104.705L3.95865 104.776L5.45699 104.705L1.97854 30.6607Z" stroke="white" stroke-opacity="0.15" stroke-width="3"/>
<defs>
<radialGradient id="paint0_radial" cx="0" cy="0" r="1" gradientUnits="userSpaceOnUse" gradientTransform="translate(0.343813 27.8281) rotate(33.3103) scale(136)">
<stop stop-color="white"/>
<stop offset="1" stop-color="white" stop-opacity="0"/>
</radialGradient>
</defs>
</svg>
