<svg width="104" height="218" viewBox="0 0 104 218" fill="none" xmlns="http://www.w3.org/2000/svg">
<path d="M101.735 176.191C101.704 177.924 100.562 179.44 98.9045 179.946L-24.604 217.699C-26.2612 218.206 -28.0561 217.587 -29.05 216.168L-103.121 110.37C-104.115 108.951 -104.082 107.053 -103.039 105.669L-25.3087 2.52988C-24.2657 1.14598 -22.4502 0.591045 -20.8118 1.15532L101.299 43.2093C102.938 43.7736 104.026 45.3287 103.996 47.0613L101.735 176.191Z" fill="#FFC42C"/>
<path d="M101.735 176.191C101.704 177.924 100.562 179.44 98.9045 179.946L-24.604 217.699C-26.2612 218.206 -28.0561 217.587 -29.05 216.168L-103.121 110.37C-104.115 108.951 -104.082 107.053 -103.039 105.669L-25.3087 2.52988C-24.2657 1.14598 -22.4502 0.591045 -20.8118 1.15532L101.299 43.2093C102.938 43.7736 104.026 45.3287 103.996 47.0613L101.735 176.191Z" fill="url(#paint0_radial)" fill-opacity="0.2"/>
<path d="M100.235 176.165C100.216 177.248 99.5018 178.195 98.466 178.512L-25.0425 216.264C-26.0782 216.581 -27.2001 216.195 -27.8212 215.308L-101.892 109.51C-102.513 108.623 -102.493 107.437 -101.841 106.572L-24.1108 3.43267C-23.4589 2.56773 -22.3242 2.2209 -21.3002 2.57357L100.811 44.6276C101.835 44.9802 102.515 45.9522 102.496 47.0351L100.235 176.165Z" stroke="white" stroke-opacity="0.15" stroke-width="3"/>
<defs>
<radialGradient id="paint0_radial" cx="0" cy="0" r="1" gradientUnits="userSpaceOnUse" gradientTransform="translate(101.684 179.097) rotate(-142.997) scale(229.611)">
<stop stop-color="white"/>
<stop offset="1" stop-color="white" stop-opacity="0"/>
</radialGradient>
</defs>
</svg>
