<svg width="59" height="62" viewBox="0 0 59 62" fill="none" xmlns="http://www.w3.org/2000/svg">
<path d="M0.0886554 16.2219C0.00733778 14.4909 1.04988 12.9044 2.67102 12.2922L33.1841 0.768537C34.8053 0.156293 36.6363 0.657555 37.7195 2.01016L58.1082 27.4688C59.1915 28.8214 59.2805 30.7177 58.3289 32.1659L40.4167 59.4239C39.465 60.8721 37.6891 61.5428 36.0177 61.0853L4.55863 52.4729C2.88722 52.0154 1.70054 50.5336 1.61922 48.8026L0.0886554 16.2219Z" fill="#2CCCFF"/>
<path d="M0.0886554 16.2219C0.00733778 14.4909 1.04988 12.9044 2.67102 12.2922L33.1841 0.768537C34.8053 0.156293 36.6363 0.657555 37.7195 2.01016L58.1082 27.4688C59.1915 28.8214 59.2805 30.7177 58.3289 32.1659L40.4167 59.4239C39.465 60.8721 37.6891 61.5428 36.0177 61.0853L4.55863 52.4729C2.88722 52.0154 1.70054 50.5336 1.61922 48.8026L0.0886554 16.2219Z" fill="url(#paint0_radial)" fill-opacity="0.2"/>
<path d="M1.587 16.1515C1.53618 15.0697 2.18777 14.0781 3.20098 13.6954L33.7141 2.1718C34.7273 1.78915 35.8717 2.10243 36.5487 2.94782L56.9374 28.4065C57.6144 29.2519 57.6701 30.437 57.0753 31.3422L39.1631 58.6002C38.5683 59.5053 37.4584 59.9245 36.4137 59.6385L4.9547 51.0262C3.91007 50.7402 3.1684 49.8141 3.11757 48.7322L1.587 16.1515Z" stroke="white" stroke-opacity="0.15" stroke-width="3"/>
<defs>
<radialGradient id="paint0_radial" cx="0" cy="0" r="1" gradientUnits="userSpaceOnUse" gradientTransform="translate(-0.0477193 13.319) rotate(33.3103) scale(65.3792)">
<stop stop-color="white"/>
<stop offset="1" stop-color="white" stop-opacity="0"/>
</radialGradient>
</defs>
</svg>
