<svg width="24" height="24" viewBox="0 0 24 24" fill="none" xmlns="http://www.w3.org/2000/svg">
<path d="M10.3657 20.5242C15.9064 20.5242 20.3981 16.0043 20.3981 10.4288C20.3981 4.8532 15.9064 0.333313 10.3657 0.333313C4.82492 0.333313 0.333252 4.8532 0.333252 10.4288C0.333252 16.0043 4.82492 20.5242 10.3657 20.5242Z" fill="white"/>
<path opacity="0.4" d="M22.1203 23.6145C21.7306 23.6019 21.36 23.4415 21.0828 23.1656L18.707 20.3885C18.1976 19.9227 18.156 19.1311 18.6136 18.6137C18.8278 18.397 19.1191 18.2751 19.4228 18.2751C19.7266 18.2751 20.0179 18.397 20.2321 18.6137L23.22 21.0045C23.6504 21.445 23.7832 22.099 23.5591 22.6741C23.335 23.2492 22.7958 23.638 22.1825 23.6667L22.1203 23.6145Z" fill="white"/>
</svg>
