<svg width="100" height="100" viewBox="0 0 100 100" fill="none" xmlns="http://www.w3.org/2000/svg">
<path d="M50 58.3333C54.4203 58.3333 58.6595 56.5774 61.7851 53.4518C64.9107 50.3262 66.6667 46.0869 66.6667 41.6667C66.6667 37.2464 64.9107 33.0072 61.7851 29.8816C58.6595 26.7559 54.4203 25 50 25C45.5797 25 41.3405 26.7559 38.2149 29.8816C35.0893 33.0072 33.3333 37.2464 33.3333 41.6667C33.3333 46.0869 35.0893 50.3262 38.2149 53.4518C41.3405 56.5774 45.5797 58.3333 50 58.3333ZM50 33.3333C52.2101 33.3333 54.3298 34.2113 55.8926 35.7741C57.4554 37.3369 58.3333 39.4565 58.3333 41.6667C58.3333 43.8768 57.4554 45.9964 55.8926 47.5592C54.3298 49.122 52.2101 50 50 50C47.7899 50 45.6703 49.122 44.1074 47.5592C42.5446 45.9964 41.6667 43.8768 41.6667 41.6667C41.6667 39.4565 42.5446 37.3369 44.1074 35.7741C45.6703 34.2113 47.7899 33.3333 50 33.3333Z" fill="white" fill-opacity="0.45" style="mix-blend-mode:overlay"/>
<path d="M16.6667 91.6667C14.4565 91.6667 12.3369 90.7887 10.7741 89.2259C9.21131 87.6631 8.33334 85.5435 8.33334 83.3334V16.6667C8.33334 14.4566 9.21131 12.337 10.7741 10.7742C12.3369 9.21135 14.4565 8.33337 16.6667 8.33337H83.3333C85.5435 8.33337 87.6631 9.21135 89.2259 10.7742C90.7887 12.337 91.6667 14.4566 91.6667 16.6667V83.3334C91.6667 85.5435 90.7887 87.6631 89.2259 89.2259C87.6631 90.7887 85.5435 91.6667 83.3333 91.6667H16.6667ZM16.6667 16.6667V83.3334H29.1667C29.1667 77.808 31.3616 72.509 35.2686 68.602C39.1756 64.695 44.4747 62.5 50 62.5C55.5253 62.5 60.8244 64.695 64.7314 68.602C68.6384 72.509 70.8333 77.808 70.8333 83.3334H83.3333V16.6667H16.6667ZM62.5 83.3334C62.5 80.0182 61.183 76.8387 58.8388 74.4945C56.4946 72.1503 53.3152 70.8334 50 70.8334C46.6848 70.8334 43.5054 72.1503 41.1612 74.4945C38.817 76.8387 37.5 80.0182 37.5 83.3334H62.5Z" fill="white" fill-opacity="0.45" style="mix-blend-mode:overlay"/>
</svg>
